<svg xmlns="http://www.w3.org/2000/svg" width="238.121" height="199.562" viewBox="0 0 238.121 199.562"><defs><style>.a{fill:none;stroke:#4ea6a6;stroke-miterlimit:10;stroke-width:3px;}</style></defs><g transform="translate(1.061 1.061)"><path class="a" d="M67.774,0,81,13.226,13.226,81,0,67.774"/><path class="a" d="M17.121,0,50.359,33.515a12.146,12.146,0,0,1,.26,17.078A11.9,11.9,0,0,1,33.7,50.331L0,16.361" transform="translate(130 118)"/><path class="a" d="M16.941,0,46.408,29.46A11.983,11.983,0,1,1,29.466,46.408L0,16.941" transform="translate(113 135)"/><path class="a" d="M0,0,5.274,5.186a21.2,21.2,0,0,0,17.185,6.182C29.375,10.551,39.134,11.265,47,19" transform="translate(74 22)"/><path class="a" d="M33,53c-8.094-9.889-16.953-23.146-19.229-34.917a15.219,15.219,0,0,0-3.814-7.694L0,0" transform="translate(20 74)"/><path class="a" d="M22.909,0c4.372,4.313,4.069,11.6-.676,16.285s-12.13,4.979-16.5.66L0,11.3" transform="translate(117 177)"/><path class="a" d="M13.226,0,0,13.226,67.774,81,81,67.774" transform="translate(155)"/><path class="a" d="M67.14,100.419l27.734,28.128c5.321,5.4,13.377,5.966,18,1.279s4.059-12.851-1.268-18.247L52.077,51.792a5.905,5.905,0,0,0-8.111-.264l-1.742,1.537c-4.937,4.367-8.728,9.8-12.06,15.521C23.157,80.629,11.981,85.559,4.494,82.513c-15.125-6.154,12.78-43.044,12.78-43.044a83.016,83.016,0,0,1,21-18.087,136.1,136.1,0,0,1,22.914-6.947,16.5,16.5,0,0,0,8.666-4.492L79.66,0" transform="translate(81 18)"/><path class="a" d="M0,50C11.669,37.745,14.522,31.421,16.761,18.117a14.487,14.487,0,0,1,4.021-7.91L31,0" transform="translate(186 74)"/><path class="a" d="M3.04,8.268,8.266,3.041a10.39,10.39,0,0,1,14.689,14.7l-5.226,5.22A10.388,10.388,0,0,1,3.04,8.268Z" transform="translate(93 171)"/><path class="a" d="M9.218,3.4A11.587,11.587,0,1,1,25.6,19.782l-5.827,5.827A11.587,11.587,0,0,1,3.391,9.223" transform="translate(59 141)"/><path class="a" d="M3.158,8.59,8.585,3.163A10.787,10.787,0,0,1,23.837,18.422l-5.427,5.42A10.785,10.785,0,0,1,3.158,8.59Z" transform="translate(75 155)"/><path class="a" d="M18.413,23.839A10.782,10.782,0,1,1,3.166,8.591L8.583,3.166A10.787,10.787,0,1,1,23.845,18.414Z" transform="translate(44 123)"/><path class="a" d="M26,.276S15.947,9.9,0,3.564" transform="translate(140 74)"/></g></svg>